<?xml version="1.0" standalone="no"?>
<!DOCTYPE svg PUBLIC "-//W3C//DTD SVG 20010904//EN"
 "http://www.w3.org/TR/2001/REC-SVG-20010904/DTD/svg10.dtd">
<svg version="1.0" xmlns="http://www.w3.org/2000/svg"
 width="352.000000pt" height="352.000000pt" viewBox="0 0 352.000000 352.000000"
 preserveAspectRatio="xMidYMid meet">
<metadata>
Created by potrace 1.14, written by Peter Selinger 2001-2017
</metadata>
<g transform="translate(0.000000,352.000000) scale(0.100000,-0.100000)"
fill="#000000" stroke="none">
<path d="M2485 2646 c-33 -8 -87 -25 -119 -38 l-60 -24 0 -120 -1 -120 55 33
c86 52 172 77 265 76 92 0 125 -6 195 -33 65 -26 117 -59 167 -107 47 -46 123
-158 123 -183 0 -9 4 -20 9 -25 35 -40 36 -298 1 -340 -7 -8 -9 -15 -6 -15 19
0 -65 -130 -119 -184 -140 -144 -355 -192 -538 -122 -60 22 -121 57 -137 76
-3 4 -12 9 -21 12 -14 5 -14 -1 -2 -56 7 -33 14 -90 15 -124 3 -75 10 -82 106
-112 343 -106 725 63 866 385 10 22 23 50 28 62 6 11 7 26 4 32 -4 6 -3 11 2
11 28 0 45 254 24 335 -6 22 -13 52 -16 66 -6 38 -69 170 -104 221 -87 126
-232 231 -385 280 -82 26 -268 33 -352 14z"/>
<path d="M1942 2555 c-69 -29 -86 -148 -29 -197 54 -48 140 15 140 102 0 77
-50 120 -111 95z"/>
<path d="M2106 2399 c-83 -82 -153 -149 -156 -149 -4 0 -51 45 -105 100 -55
55 -103 100 -108 100 -20 0 -2 -133 29 -215 4 -13 -2 -9 -17 10 -13 17 -30 36
-37 44 -11 11 -13 36 -10 99 l4 83 -35 18 c-67 33 -134 46 -241 46 -145 0
-246 -34 -355 -119 -45 -35 -115 -106 -115 -116 0 -4 -39 -10 -87 -13 -104 -7
-128 -11 -191 -36 -238 -95 -383 -313 -377 -567 6 -220 116 -397 318 -508 37
-20 67 -34 67 -30 0 3 6 2 13 -4 32 -27 151 -33 587 -30 l445 3 56 26 c55 26
97 56 128 93 9 10 21 24 27 30 23 25 66 119 71 160 4 22 7 62 7 88 0 57 -13
65 146 -94 59 -60 111 -108 114 -108 7 0 0 80 -9 110 -2 8 -7 29 -10 45 -8 38
-13 59 -15 63 -2 1 -3 5 -5 10 -3 11 -24 63 -42 102 -18 38 -69 117 -90 139
-12 11 -6 21 32 62 25 26 46 58 47 71 0 13 2 30 3 38 2 24 -24 72 -61 110
l-34 35 25 29 c33 38 95 150 95 170 0 9 5 16 10 16 6 0 9 3 8 8 -1 4 4 32 11
62 7 30 15 75 17 100 3 25 7 51 9 58 11 34 -33 -3 -169 -139z m-285 -282 c-8
-8 -11 -8 -11 0 0 6 -3 20 -7 30 -7 17 -6 17 11 0 14 -14 16 -21 7 -30z"/>
<path d="M2068 1079 c-6 -4 -4 -10 5 -15 12 -7 60 -128 62 -156 0 -3 3 -10 8
-14 4 -4 7 -15 7 -24 0 -9 6 -25 14 -35 12 -17 16 -10 41 66 15 46 31 87 34
91 4 5 20 -30 35 -77 16 -47 34 -85 40 -85 7 0 27 48 45 106 19 58 42 114 53
124 19 17 18 18 -17 22 -37 4 -58 -8 -32 -18 12 -4 11 -18 -11 -85 -15 -43
-31 -79 -36 -79 -5 0 -7 2 -4 5 7 8 -49 169 -60 173 -6 2 -24 -38 -40 -89
l-29 -92 -16 42 c-9 23 -21 59 -26 81 -7 33 -6 40 6 40 8 0 13 5 11 11 -4 13
-73 18 -90 8z"/>
<path d="M2688 1028 c-32 -35 -33 -38 -13 -38 11 0 14 -13 13 -57 -2 -93 8
-110 65 -105 23 2 50 29 38 37 -5 3 -12 1 -16 -5 -9 -14 -45 -12 -46 3 -1 6
-2 38 -3 70 -2 56 -2 57 26 57 15 0 28 5 28 10 0 6 -13 10 -29 10 -24 0 -28 4
-26 25 4 32 -4 31 -37 -7z"/>
<path d="M2858 1028 c-32 -34 -34 -38 -13 -38 12 0 15 -14 15 -68 0 -55 4 -72
19 -86 17 -16 22 -16 56 -2 20 9 34 20 30 26 -4 6 -13 5 -25 -2 -29 -18 -40
-1 -43 70 -3 62 -3 62 24 62 15 0 31 5 34 10 4 6 -7 10 -24 10 -26 0 -31 4
-31 25 0 31 -8 30 -42 -7z"/>
<path d="M2513 1013 c-58 -11 -85 -120 -40 -160 12 -11 33 -23 46 -26 26 -6
91 18 91 34 0 12 -17 11 -25 -1 -3 -5 -21 -10 -39 -10 -25 0 -35 6 -44 25 -22
49 -17 55 48 55 56 0 60 1 60 23 0 40 -48 69 -97 60z m48 -23 c5 0 9 -9 9 -20
0 -17 -7 -20 -40 -20 -27 0 -39 4 -37 12 3 19 30 38 45 33 8 -3 18 -5 23 -5z"/>
<path d="M3061 1005 c-53 -28 -67 -105 -28 -150 28 -33 82 -37 122 -11 30 20
28 33 -3 17 -28 -15 -67 -14 -80 2 -6 6 -13 24 -17 39 -7 27 -7 27 57 30 57 3
63 5 60 23 -8 47 -68 74 -111 50z m70 -32 c8 -22 6 -23 -37 -23 -45 0 -47 3
-22 36 14 19 50 11 59 -13z"/>
<path d="M3325 1008 c-11 -6 -23 -16 -27 -22 -5 -7 -8 -4 -8 7 0 13 -6 17 -27
14 -15 -2 -29 -9 -31 -16 -2 -6 2 -10 9 -9 17 4 19 -100 2 -129 -13 -22 -12
-23 27 -23 22 0 40 5 40 10 0 6 -4 10 -10 10 -5 0 -9 24 -9 54 1 41 6 59 21
72 16 15 21 16 28 5 4 -8 15 -11 24 -8 14 5 15 11 6 27 -12 23 -17 24 -45 8z"/>
</g>
</svg>
